# xmcd
#
# Track frame offsets:
#	150
#	20436
#	43768
#	76657
#	95082
#	121506
#	143438
#	153746
#	175772
#	203695
#	227266
#	284537
#
# Disc length: 4374 seconds
#
# Revision: 0
# Processed by: cddbd v1.4PL0 Copyright (c) Steve Scherf et al.
# Submitted via: dBpowerAMP V4.0
#
DISCID=8e11140c
DTITLE=Blues Allstars - The Nashville Sessions
DYEAR=2002
DGENRE=Blues
TTITLE0=Blow Wind Blow
TTITLE1=Macon House Jam
TTITLE2=Ond Hand In My Pocket
TTITLE3=Freddies Blues
TTITLE4=Blues Walked Through
TTITLE5=Storms A Comin
TTITLE6=I Love My Smoke
TTITLE7=Junction Slow Blues
TTITLE8=My Baby Left Me Walkin
TTITLE9=Stiks Chicago Blues
TTITLE10=All My Wine Is Gone
TTITLE11=DATA
EXTD=
EXTT0=
EXTT1=
EXTT2=
EXTT3=
EXTT4=
EXTT5=
EXTT6=
EXTT7=
EXTT8=
EXTT9=
EXTT10=
EXTT11=
PLAYORDER=
